<?xml version="1.0" encoding="iso-8859-1"?>
<!-- Uploaded to: SVG Repo, www.svgrepo.com, Generator: SVG Repo Mixer Tools -->
<svg height="300px" width="300px" version="1.1" id="Layer_1" xmlns="http://www.w3.org/2000/svg" xmlns:xlink="http://www.w3.org/1999/xlink" 
	 viewBox="0 0 512 512" xml:space="preserve">

<!-- alt kilit kısım -->
<path fill="red" d="M256,503.706L256,503.706c-87.946,0-159.24-71.294-159.24-159.24v-106.16
	c0-9.772,7.921-17.693,17.693-17.693h283.093c9.772,0,17.693,7.921,17.693,17.693v106.16
	C415.24,432.412,343.946,503.706,256,503.706z"/>

<!-- üst kilit kısım -->
<path fill="yellow" d="M256,8.294c-73.288,0-132.7,59.412-132.7,132.7v97.313h35.387v-97.313
	c0-53.745,43.569-97.313,97.313-97.313s97.313,43.569,97.313,97.313v97.313H388.7v-97.313C388.7,67.706,329.288,8.294,256,8.294z"/>


<path d="M256,300.786c-19.207,0-34.834,15.627-34.834,34.834c0,16.35,11.325,30.096,26.54,33.828v28.098
	c0,4.58,3.713,8.294,8.294,8.294s8.294-3.713,8.294-8.294v-28.098c15.215-3.731,26.54-17.479,26.54-33.828
	C290.834,316.413,275.207,300.786,256,300.786z M256,353.866c-10.061,0-18.246-8.185-18.246-18.246
	c0-10.061,8.185-18.246,18.246-18.246c10.061,0,18.246,8.185,18.246,18.246C274.246,345.681,266.061,353.866,256,353.866z"/>



</svg>